<svg width="44" height="44" viewBox="0 0 44 44" fill="none" xmlns="http://www.w3.org/2000/svg">
<path d="M21.9999 35.2918C29.3407 35.2918 35.2916 29.3409 35.2916 22.0002C35.2916 14.6594 29.3407 8.7085 21.9999 8.7085C14.6591 8.7085 8.70825 14.6594 8.70825 22.0002C8.70825 29.3409 14.6591 35.2918 21.9999 35.2918Z" stroke="#303237" strokeWidth="1.5" stroke-linecap="round" stroke-linejoin="round"/>
<path d="M22.0001 27.9582C25.2908 27.9582 27.9584 25.2905 27.9584 21.9998C27.9584 18.7091 25.2908 16.0415 22.0001 16.0415C18.7094 16.0415 16.0417 18.7091 16.0417 21.9998C16.0417 25.2905 18.7094 27.9582 22.0001 27.9582Z" stroke="#303237" strokeWidth="1.5" stroke-linecap="round" stroke-linejoin="round"/>
<path d="M12.8333 31.1668L17.4166 26.5835" stroke="#303237" strokeWidth="1.5" stroke-linecap="round" stroke-linejoin="round"/>
<path d="M31.1666 31.1668L26.5833 26.5835" stroke="#303237" strokeWidth="1.5" stroke-linecap="round" stroke-linejoin="round"/>
<path d="M17.4166 17.4168L12.8333 12.8335" stroke="#303237" strokeWidth="1.5" stroke-linecap="round" stroke-linejoin="round"/>
<path d="M26.5833 17.4168L31.1666 12.8335" stroke="#303237" strokeWidth="1.5" stroke-linecap="round" stroke-linejoin="round"/>
</svg>
