<svg width="44" height="44" viewBox="0 0 44 44" fill="none" xmlns="http://www.w3.org/2000/svg">
<path d="M10.5416 30.7085L22 8.7085L33.4583 30.7085" stroke="#303237" strokeWidth="1.5" stroke-linecap="round" stroke-linejoin="round"/>
<path d="M21.0833 22.0002C21.0833 22.5063 20.6729 22.9168 20.1667 22.9168C19.6605 22.9168 19.25 22.5063 19.25 22.0002C19.25 21.494 19.6605 21.0835 20.1667 21.0835C20.6729 21.0835 21.0833 21.494 21.0833 22.0002Z" stroke="#303237" stroke-linecap="round" stroke-linejoin="round"/>
<path d="M26.5833 25.6667C26.5833 26.1729 26.1729 26.5833 25.6667 26.5833C25.1605 26.5833 24.75 26.1729 24.75 25.6667C24.75 25.1605 25.1605 24.75 25.6667 24.75C26.1729 24.75 26.5833 25.1605 26.5833 25.6667Z" stroke="#303237" stroke-linecap="round" stroke-linejoin="round"/>
<path d="M33.4583 30.7085C27.0416 37.1252 16.9583 37.1252 10.5416 30.7085" stroke="#303237" strokeWidth="1.5" stroke-linecap="round" stroke-linejoin="round"/>
<path d="M31.0746 27.4077C25.6667 32.9999 18.3333 32.9999 12.9255 27.4077" stroke="#303237" strokeWidth="1.5" stroke-linecap="round" stroke-linejoin="round"/>
</svg>
