<svg width="44" height="44" viewBox="0 0 44 44" fill="none" xmlns="http://www.w3.org/2000/svg">
<path d="M33.4586 31.6252H10.5416C9.52907 31.6252 8.70825 30.8044 8.70825 29.7918V23.3752C8.70825 21.3501 10.3499 19.7085 12.3749 19.7085H31.6253C33.6504 19.7085 35.292 21.3501 35.292 23.3752V29.7918C35.292 30.8044 34.4712 31.6252 33.4586 31.6252Z" stroke="#303237" strokeWidth="1.5" stroke-linecap="round" stroke-linejoin="round"/>
<path d="M15.5833 25.6667C15.5833 26.1729 15.1729 26.5833 14.6667 26.5833C14.1604 26.5833 13.75 26.1729 13.75 25.6667C13.75 25.1605 14.1604 24.75 14.6667 24.75C15.1729 24.75 15.5833 25.1605 15.5833 25.6667Z" stroke="#303237" stroke-linecap="round" stroke-linejoin="round"/>
<path d="M30.2501 25.6667C30.2501 26.1729 29.8396 26.5833 29.3334 26.5833C28.8272 26.5833 28.4167 26.1729 28.4167 25.6667C28.4167 25.1605 28.8272 24.75 29.3334 24.75C29.8396 24.75 30.2501 25.1605 30.2501 25.6667Z" stroke="#303237" stroke-linecap="round" stroke-linejoin="round"/>
<path d="M33.4588 19.7085H10.5417L11.8644 11.7724C12.1591 10.0044 13.6888 8.7085 15.4812 8.7085H28.5194C30.3119 8.7085 31.8414 10.0044 32.1362 11.7724L33.4588 19.7085Z" stroke="#303237" strokeWidth="1.5" stroke-linecap="round" stroke-linejoin="round"/>
<path d="M12.375 32.5415V35.2915" stroke="#303237" strokeWidth="1.5" stroke-linecap="round" stroke-linejoin="round"/>
<path d="M31.625 32.5415V35.2915" stroke="#303237" strokeWidth="1.5" stroke-linecap="round" stroke-linejoin="round"/>
</svg>
