<svg width="44" height="44" viewBox="0 0 44 44" fill="none" xmlns="http://www.w3.org/2000/svg">
<path d="M23.8334 21.9998C23.8334 23.0124 23.0126 23.8332 22.0001 23.8332C20.9875 23.8332 20.1667 23.0124 20.1667 21.9998C20.1667 20.9873 20.9875 20.1665 22.0001 20.1665C23.0126 20.1665 23.8334 20.9873 23.8334 21.9998Z" fill="#303237"/>
<path d="M16.4999 21.9998C16.4999 23.0124 15.6791 23.8332 14.6666 23.8332C13.6541 23.8332 12.8333 23.0124 12.8333 21.9998C12.8333 20.9873 13.6541 20.1665 14.6666 20.1665C15.6791 20.1665 16.4999 20.9873 16.4999 21.9998Z" fill="#303237"/>
<path d="M31.1667 21.9998C31.1667 23.0124 30.3459 23.8332 29.3333 23.8332C28.3208 23.8332 27.5 23.0124 27.5 21.9998C27.5 20.9873 28.3208 20.1665 29.3333 20.1665C30.3459 20.1665 31.1667 20.9873 31.1667 21.9998Z" fill="#303237"/>
</svg>
