<svg width="44" height="44" viewBox="0 0 44 44" fill="none" xmlns="http://www.w3.org/2000/svg">
<path d="M35.2917 22.0002C35.2917 18.475 33.8913 15.0942 31.3987 12.6015C28.906 10.1089 25.5252 8.7085 22 8.7085M35.2917 22.0002H8.70837M35.2917 22.0002C35.2917 23.2725 35.1139 24.5027 34.7784 25.6668M22 8.7085C18.4749 8.7085 15.0941 10.1089 12.6014 12.6015C10.1087 15.0942 8.70837 18.475 8.70837 22.0002M22 8.7085C19.7212 8.7085 16.0417 13.7502 16.0417 22.0002C16.0417 23.3055 16.1334 24.5302 16.2984 25.6668M22 8.7085C24.2789 8.7085 27.9584 13.7502 27.9584 22.0002C27.9584 23.3055 27.8667 24.5302 27.7017 25.6668M8.70837 22.0002C8.70837 23.2725 8.88621 24.5027 9.22171 25.6668M9.62504 30.7085L10.5417 35.2918L12.8334 32.5418L15.125 35.2918L16.0417 30.7085M18.7917 30.7085L19.7084 35.2918L22 32.5418L24.2917 35.2918L25.2084 30.7085M27.9584 30.7085L28.875 35.2918L31.1667 32.5418L33.4584 35.2918L34.375 30.7085" stroke="#303237" stroke-width="1.5" stroke-linecap="round" stroke-linejoin="round"/>
</svg>
